<?xml version="1.0" encoding="UTF-8" standalone="no"?>
<!-- Created with Inkscape (http://www.inkscape.org/) -->
<svg
   xmlns:svg="http://www.w3.org/2000/svg"
   xmlns="http://www.w3.org/2000/svg"
   xmlns:xlink="http://www.w3.org/1999/xlink"
   version="1.0"
   width="80mm"
   height="30mm"
   viewBox="0 0 8000 3000"
   id="svg2"
   xml:space="preserve"
   style="fill-rule:evenodd">
 <defs
   id="defs4"><linearGradient
     x1="4129.9"
     y1="1904.2"
     x2="4129.9"
     y2="2361"
     id="id0"
     gradientUnits="userSpaceOnUse">
   <stop
   id="stop9"
   style="stop-color:#ff0000;stop-opacity:1"
   offset="0" />
   <stop
   id="stop11"
   style="stop-color:#cc3300;stop-opacity:1"
   offset="0.01176" />
   <stop
   id="stop13"
   style="stop-color:#ffffff;stop-opacity:1"
   offset="0.98823" />
   <stop
   id="stop15"
   style="stop-color:#ffffff;stop-opacity:1"
   offset="1" />
  </linearGradient><linearGradient
     x1="4129.9"
     y1="1904.2"
     x2="4129.9"
     y2="2361"
     id="linearGradient3413"
     xlink:href="#id0"
     gradientUnits="userSpaceOnUse" /></defs>
 <rect
   width="8043.3"
   height="3245.6"
   x="-0.00014355"
   y="-104.44"
   id="rect3439"
   style="opacity:1;fill:#ffffff;fill-opacity:1;fill-rule:nonzero;stroke:none;stroke-width:2.491;stroke-linecap:butt;stroke-linejoin:miter;marker:none;marker-start:none;marker-mid:none;marker-end:none;stroke-miterlimit:10;stroke-dasharray:4.982, 2.491;stroke-dashoffset:0;stroke-opacity:1;visibility:visible;display:inline;overflow:visible;enable-background:accumulate" /><path
   d="M 2344,2361 L 5917,2361 C 5902,2347 5888,2333 5875,2317 C 5848,2294 5831,2269 5808,2221 C 5773,2161 5744,2096 5718,2032 L 5669,1904 L 5668,1904 L 2635,1904 C 2576,2030 2521,2151 2429,2265 C 2393,2318 2383,2329 2344,2361 z"
   id="path19"
   style="fill:url(#linearGradient3413)" /><polygon
   points="2635,1621 5668,1621 5668,1128 2634,1128 2635,1621 "
   id="polygon21"
   style="fill:#58ffdb" /><polygon
   points="2635,845 5668,845 5668,352 2634,352 2635,845 "
   id="polygon23"
   style="fill:#61ffe7" /><path
   d="M 2266,2423 C 2402,2311 2370,2352 2471,2200 C 2517,2103 2575,2024 2634,1904 L 941,1904 L 943,2818 L 1965,2576 C 2073,2537 2156,2469 2267,2423 L 2266,2423 z"
   id="path25"
   style="fill:#f4fea2" /><path
   d="M 5760,2116 C 5855,2334 5840,2297 6035,2424 C 6140,2491 6230,2537 6338,2577 L 7362,2819 L 7362,1905 L 5669,1905 L 5761,2117 L 5760,2116 z"
   id="path27"
   style="fill:#f4fea2" /><polygon
   points="2635,1092 5668,1092 5668,881 2634,881 2635,1092 "
   id="polygon29"
   style="fill:#ffffff" /><polygon
   points="2635,1868 5668,1868 5668,1657 2634,1657 2635,1868 "
   id="polygon31"
   style="fill:#ffffff" /><path
   d="M 941,2818 C 941,1904 941,1904 941,1904 L 7362,1904 L 7362,2818 C 7238,2792 7114,2767 6990,2741 C 6787,2702 6582,2659 6376,2593 C 6211,2539 6059,2468 5917,2361 C 5825,2276 5767,2152 5718,2032 L 5669,1904 L 5668,352 L 2635,352 L 2635,1904 C 2573,2035 2517,2159 2419,2277 C 2300,2388 2160,2476 2008,2543 C 1832,2612 1636,2680 1428,2720 L 942,2818 L 941,2818 z"
   id="path33"
   style="fill:none;stroke:#000000;stroke-width:50" /><rect
   width="3033"
   height="283"
   x="2634"
   y="845"
   id="rect35"
   style="fill:none;stroke:#000000;stroke-width:20" /><rect
   width="3033"
   height="283"
   x="2634"
   y="1621"
   id="rect37"
   style="fill:none;stroke:#000000;stroke-width:20" /><path
   d="M 1390,2361 L 1390,2108 L 1429,2108 L 1429,2144 C 1448,2116 1474,2103 1509,2103 C 1524,2103 1538,2106 1551,2111 C 1564,2116 1573,2124 1580,2133 C 1586,2142 1591,2152 1593,2165 C 1595,2173 1595,2187 1595,2207 L 1595,2362 L 1552,2362 L 1552,2208 C 1552,2191 1550,2177 1547,2169 C 1544,2160 1538,2153 1529,2148 C 1521,2143 1511,2140 1499,2140 C 1481,2140 1465,2146 1452,2157 C 1439,2169 1432,2191 1432,2223 L 1432,2361 L 1389,2361 L 1390,2361 z"
   id="path39"
   style="fill:#000000;fill-rule:nonzero" /><polygon
   points="1751,2304 1751,2209 1656,2209 1656,2169 1751,2169 1751,2074 1792,2074 1792,2169 1887,2169 1887,2209 1792,2209 1792,2304 1751,2304 "
   id="1"
   style="fill:#000000;fill-rule:nonzero" /><path
   d="M 6389,2361 L 6389,2108 L 6428,2108 L 6428,2144 C 6447,2116 6473,2103 6508,2103 C 6523,2103 6537,2106 6550,2111 C 6563,2116 6572,2124 6579,2133 C 6585,2142 6590,2152 6592,2165 C 6594,2173 6594,2187 6594,2207 L 6594,2362 L 6551,2362 L 6551,2208 C 6551,2191 6549,2177 6546,2169 C 6543,2160 6537,2153 6528,2148 C 6520,2143 6510,2140 6498,2140 C 6480,2140 6464,2146 6451,2157 C 6438,2169 6431,2191 6431,2223 L 6431,2361 L 6388,2361 L 6389,2361 z"
   id="path42"
   style="fill:#000000;fill-rule:nonzero" /><polygon
   points="6750,2304 6750,2209 6655,2209 6655,2169 6750,2169 6750,2074 6790,2074 6790,2169 6885,2169 6885,2209 6790,2209 6790,2304 6750,2304 "
   id="polygon44"
   style="fill:#000000;fill-rule:nonzero" /><line
   style="fill:none;stroke:#000000;stroke-width:20"
   id="line112"
   y2="1345"
   x2="6123"
   y1="1505"
   x1="5558"
   class="fil5 str1" /><line
   style="fill:none;stroke:#000000;stroke-width:20"
   id="line114"
   y2="440"
   x2="2268"
   y1="691"
   x1="2836"
   class="fil5 str1" /><line
   style="fill:none;stroke:#000000;stroke-width:20"
   id="line116"
   y2="2580"
   x2="2419"
   y1="2361"
   x1="2009"
   class="fil5 str1" /><line
   style="fill:none;stroke:#000000;stroke-width:20"
   id="line118"
   y2="2580"
   x2="5468"
   y1="2276"
   x1="6008"
   class="fil5 str1" /><polyline
   style="fill:none;stroke:#000000;stroke-width:20"
   id="polyline140"
   points="2793,1783 2226,1532 2717,987 "
   class="fil5 str1" />
<text
   x="2455.3333"
   y="2717.7778"
   id="text3415"
   xml:space="preserve"
   style="font-size:338.66669px;font-style:normal;font-variant:normal;font-weight:normal;font-stretch:normal;text-align:start;line-height:125%;writing-mode:lr-tb;text-anchor:start;fill:#000000;fill-opacity:1;stroke:none;stroke-width:1px;stroke-linecap:butt;stroke-linejoin:miter;stroke-opacity:1;font-family:Arial;-inkscape-font-specification:Arial"><tspan
     x="2455.3333"
     y="2717.7778"
     id="tspan3417">Source</tspan></text>
<text
   x="4600.2227"
   y="2717.7778"
   id="text3419"
   xml:space="preserve"
   style="font-size:338.66669px;font-style:normal;font-variant:normal;font-weight:normal;font-stretch:normal;text-align:start;line-height:125%;writing-mode:lr-tb;text-anchor:start;fill:#000000;fill-opacity:1;stroke:none;stroke-width:1px;stroke-linecap:butt;stroke-linejoin:miter;stroke-opacity:1;font-family:Arial;-inkscape-font-specification:Arial"><tspan
     x="4600.2227"
     y="2717.7778"
     id="tspan3421">Drain</tspan></text>
<text
   x="3302"
   y="2238"
   id="text3423"
   xml:space="preserve"
   style="font-size:338.66669px;font-style:normal;font-variant:normal;font-weight:normal;font-stretch:normal;text-align:start;line-height:125%;writing-mode:lr-tb;text-anchor:start;fill:#000000;fill-opacity:1;stroke:none;stroke-width:1px;stroke-linecap:butt;stroke-linejoin:miter;stroke-opacity:1;font-family:Arial;-inkscape-font-specification:Arial"><tspan
     x="3302"
     y="2238"
     id="tspan3425">n-Channel</tspan></text>
<text
   x="271.41818"
   y="526.04718"
   id="text3427"
   xml:space="preserve"
   style="font-size:338.66669px;font-style:normal;font-variant:normal;font-weight:normal;font-stretch:normal;text-align:start;line-height:125%;writing-mode:lr-tb;text-anchor:start;fill:#000000;fill-opacity:1;stroke:none;stroke-width:1px;stroke-linecap:butt;stroke-linejoin:miter;stroke-opacity:1;font-family:Arial;-inkscape-font-specification:Arial"><tspan
     x="271.41818"
     y="526.04718"
     id="tspan3429">Control gate</tspan></text>
<text
   x="5926.6665"
   y="1165.5555"
   id="text3431"
   xml:space="preserve"
   style="font-size:338.66669px;font-style:normal;font-variant:normal;font-weight:normal;font-stretch:normal;text-align:start;line-height:125%;writing-mode:lr-tb;text-anchor:start;fill:#000000;fill-opacity:1;stroke:none;stroke-width:1px;stroke-linecap:butt;stroke-linejoin:miter;stroke-opacity:1;font-family:Arial;-inkscape-font-specification:Arial"><tspan
     x="5926.6665"
     y="1165.5555"
     id="tspan3433">Floating gate</tspan></text>
<text
   x="987.77765"
   y="1657.4263"
   id="text3435"
   xml:space="preserve"
   style="font-size:338.66669px;font-style:normal;font-variant:normal;font-weight:normal;font-stretch:normal;text-align:start;line-height:125%;writing-mode:lr-tb;text-anchor:start;fill:#000000;fill-opacity:1;stroke:none;stroke-width:1px;stroke-linecap:butt;stroke-linejoin:miter;stroke-opacity:1;font-family:Arial;-inkscape-font-specification:Arial"><tspan
     x="987.77765"
     y="1657.4263"
     id="tspan3437">Isolator</tspan></text>
</svg>